<svg xmlns:xlink="http://www.w3.org/1999/xlink" id="Calque_2" xmlns="http://www.w3.org/2000/svg" viewBox="0 0 193.28 240.23" width="193.28"  height="240.23" ><defs><style>.cls-1,.cls-2{isolation:isolate;}.cls-3{fill:#fff;stroke-width:0px;}.cls-2{fill:none;opacity:.88;stroke:#fff;stroke-miterlimit:11.34;}</style></defs><g id="svg1"><g id="Principale_-_blanc"><path class="cls-3" d="m140.98,151.5h-.15c-6.27.27-17.38.05-24.39.03-.49-.05-.56-.2-.56-.53-.03-4.36-.54-9.38-2.02-14.35-.06-.18-.21-.33-.38-.18-2.05,1.4-3.8,3.9-4.22,5.04-.15.24-.21.3-.1.79.73,2.53,1.54,10.27,2.51,26.17.23,2.77,5.89,3.06,5.97.1.05-6.89.07-7.31,0-11.07,0-.05.02-.05.05-.05,5.79-.6,14.31.11,20.05-.41l-.16,11.99c.32,2.63,4.94,2.52,5.05-.58l.11-13.36c-.11-1.17.54-2.16-1.75-3.57Z"/><path class="cls-3" d="m102.98,103.33c4.94-4.04,3.97-2.99,7.77-6.05,2.01-1.57,3.88-3.08,5.66-4.55l7.04,6.35h0c1.73,1.33,4.79,4.39,5.5,3.5-.05.25,7.43-2.37,21.38-5.42.4-.06.75-.14,1.07-.24,1.91,1.44,7.15,5.56,10.87,6.69,2.08-.08,4.17-3.6,2.45-5.05-2.03-1.01-5.6-3.01-9.03-5.4,1.42-2.75,2.56-5.88,3.65-8.17,1.56-4.62-3.34-6.44-5.27-2.99-2.18,2.8-3.42,5.92-3.88,9.26l.14.14c-10.49,1.41-16.53,2.64-20.29,3.84-.07.42-2.4-2.43-6.94-8.22,21.65-19.27,22.2-28.3,24.69-35.64,2.03-5.98-4.34-6.5-5.75-1.58-2.19,7.66-5.74,14.94-14.31,24.15-.03-.24-.07-.48-.14-.75-2.51-5.94-2.94-11.98-3-19.04.27-.09.81-.04,2.21-.59,1.39-.54,4.83-2.41,4.86-2.95.12-1.83-1.21-4.99-1.98-4.74-2.26.68-4.9,2.87-5.18,1.97-.05-.02.03-.55.17-1.35.56-3.18,1.78-8.66,1.99-9.77.38-1.89-3.7-3.43-4.38-1.46-2.14,5.93-8.81,20.12.85,43h0c.19-.07-.19.07,0,0-3.96,3.85-8.2,7.85-14.1,12.54-.62.56-2.67,2.12-6.7,5.38-21.58,17.35-23.42,37.04-26.01,55.11-.05.2.08.24-.63.23-5.41-.39-16.3-.43-23.86-.03h0c-1.16.49-1.81,1.35-2.02,2.52l-.14,14.35c.11,3.1,5.6,3.12,5.92.49-.39-3.78,0-7.24-.21-12.14.79.2,11.6.18,14.16.17,2.38-.04,4.44.12,5.5.13.2.11.36.18.5.23-.05,3.06-.21,5.36-.17,11.54.08,2.96,5.37,2.44,5.6-.33,1.94-28.71,4.48-50.36,22-65.12Z"/><path class="cls-3" d="m166.4,130.37c-4.97-3.58-10.13-7.01-16.4-9.58,1.52-2.01,3.58-3.05,5.9-3.8,1.98-.78-3.69-4.71-5.59-3.93-2.7,1.43-5.14,3.31-6.89,6.13-9.45-2.34-15.71-.61-22.68,1.54,0-2.23-.5-4.02.64-8.36.78-1.75-6.04-1.91-6.5.08-.77,3.87-1.16,6.34.08,11.25-7.3,3.29-10.63,8.42-14.16,13.95-2.42-3.89-5.86-7.42-9.79-10.32-1.21-1.03-3.32,5.13-2.05,6.11,3.02,2.32,5.83,5.44,8.7,10.2-2.71,7.84-4.43,11.52-4.29,25.08h0c1.89,2.29,3.94,1.82,6.03.43-1.82-31.79,24.3-61.08,63.74-33.82,1.64.94,5.98-3.3,3.26-4.94Z"/><path class="cls-3" d="m77.56,127.07c1.31.54,3.36-5.28,1.59-5.9h0c-3.47-.84-6.05-2.23-9.89-2.43.04-1.93.07-4.25.93-6.18.17-1.26-5.58-1.88-5.87-.36-.9,1.97-.94,4.05-1.04,6.12-2.88-.33-5.82-.3-8.81.19-.41-1.57-1.24-2.66-2.22-3.88-1-1.05-7.26.74-6.26,1.72,1.34,1.18,2.47,2.37,3.01,3.55-15.41,5-20.67,8.83-22.49,11.53-2.01,2.49,2.47,5.09,3.72,4.1,8.77-5.54,25.68-15.71,47.32-8.47Z"/><path id="path6-04-3-1" class="cls-3" d="m131.37,56.17c5.76,6.29-.46,6.73-1.77,7.86-4.99-3.83-2.71-6.08,1.77-7.86Z"/><path id="path6-3-5-5-9" class="cls-3" d="m42.77,105.72c-9.83-2.3-5.08-6.9-4.93-8.89,7.2.4,7.15,4.14,4.93,8.89Z"/><path id="path6-3-1-1-5-3" class="cls-3" d="m69.77,107.74c-9.83-2.3-5.08-6.9-4.93-8.89,7.2.4,7.15,4.14,4.93,8.89Z"/><path id="path6-3-1-9-2-4-1" class="cls-3" d="m103.16,75.14c-9.83-2.3-5.08-6.9-4.93-8.89,7.2.4,7.15,4.14,4.93,8.89Z"/><path id="path6-3-8-3-5-1" class="cls-3" d="m48.11,100.84c-1.47-7.79,3.22-5.87,4.66-6.39,1.97,5.29-.65,6.46-4.66,6.39Z"/><path id="path6-3-8-55-7-1-4" class="cls-3" d="m169.82,106.97c-1.47-7.79,3.22-5.87,4.66-6.39,1.97,5.29-.65,6.46-4.66,6.39Z"/><path id="path6-3-8-8-2-1-9" class="cls-3" d="m109.99,43.43c-1.47-7.79,3.22-5.87,4.66-6.39,1.97,5.29-.65,6.46-4.66,6.39Z"/><path id="path6-3-8-54-4-6-59" class="cls-3" d="m78.7,54.62c-1.47-7.79,3.22-5.87,4.66-6.39,1.97,5.29-.65,6.46-4.66,6.39Z"/><path id="path6-3-8-54-9-1-1-0" class="cls-3" d="m153.83,111.14c-3.77-6.97,1.29-6.57,2.49-7.5,3.49,4.44,1.34,6.35-2.49,7.5Z"/><path id="path6-3-8-54-9-5-8-9-9" class="cls-3" d="m132.17,90.98c-3.77-6.97,1.29-6.57,2.49-7.5,3.49,4.44,1.34,6.35-2.49,7.5Z"/><path id="path6-3-8-5-2-3-3" class="cls-3" d="m53.2,66.33c-.96-3.82,2.1-2.88,3.03-3.14,1.28,2.59-.42,3.17-3.03,3.14Z"/><path id="path6-3-8-5-3-6-4-4" class="cls-3" d="m163.39,80.09c-6.13-2.36-1.84-5.44-1.27-6.9,4.78.78,3.88,3.54,1.27,6.9Z"/><path id="path6-3-8-5-5-0-7-0" class="cls-3" d="m112.14,65.84c-.96-3.82,2.1-2.88,3.03-3.14,1.28,2.59-.42,3.17-3.03,3.14Z"/><path id="path6-3-8-5-5-3-3-9-7" class="cls-3" d="m136.53,114.63c-.96-3.82,2.1-2.88,3.03-3.14,1.28,2.59-.42,3.17-3.03,3.14Z"/><path id="path6-3-8-0-9-8-5" class="cls-3" d="m41.28,80.73c-1.47-7.79,3.22-5.87,4.66-6.39,1.97,5.29-.65,6.46-4.66,6.39h0Z"/><path id="path6-3-8-0-7-4-0-7" class="cls-3" d="m106.01,89.75c-7.27-3.17-3.04-5.96-2.67-7.44,5.48,1.35,4.98,4.17,2.67,7.44Z"/><path id="path6-3-8-0-7-2-9-7-5" class="cls-3" d="m119.55,106.19c-7.27-3.17-3.04-5.96-2.67-7.44,5.48,1.35,4.98,4.17,2.67,7.44Z"/><path class="cls-3" d="m106.34,30.2c-4.32,3.35-8.65,6.81-13.68,14.37-3.87-3.24-6.75-6.71-7.21-12.36-.23-2.74-4.8-1.88-4.95.46-.34,8.28,3.46,13.36,9.21,16.77-2.74,4.56-4.74,8.73-6.03,13.29-2.45-3.09-4.96-6.14-8.32-8.62.72-5.6,1.15-12.67-1.66-19.28-1.45-2.52-6.31-1.38-5.73.85,1.64,5.35,1.86,9.77,1.82,14.92-7.09-3.03-15.43-5.58-20.7-4.64-3.69,1.19-2.51,4.48-.31,5.57,11.79,1.93,20.85,1.51,32.5,19.32-.92,3.3-1.68,6.43-1.72,9.73-6.24-4.5-5.69-3.43-11.59-10.66-1.78-2.64-6.93-1.65-5.73.93,3.49,6.38,4.53,9.67,17.02,16.23.17,2.09.11,4.07,0,6.01-6.26-3.29-11.29-5.32-18.29-6.74.36-13.08-12.38-25.58-22.48-29.1-2.89-.82-5.21,3.77-2.4,5.1,14.5,7.25,16.71,17.1,17.83,22.57-8.78-1.82-17.58-2.23-29.59-1.7-3.23.09-2.3,5.71,1.08,5.8,23.33,1.23,46.3,2.82,63.65,18.16l4.36-4.82h0c.35-2.91.28-7.03,5.34-11.26,1.51-1.4-.04-6.87-2.01-5.87-4.22,2.83-7.29,6.35-8.74,12.6-.96-.54-1.64-.89-2.89-1.58-.83-16.52,2.68-43.47,25.18-61.81,1.34-2.17-2.02-5.41-3.95-4.24Z"/><path class="cls-3" d="m109.12,123.41c-2.78-5.25-5.36-10.09-9.35-14.74l-4.32,5.13c3.11,3.76,5.99,8.1,8.57,13.16,2.48.03,6.16-1.59,5.11-3.56h0Z"/><path id="path28-5-7" class="cls-3" d="m179.79,115.29c-2.76-1.09-5.57-2.12-11,.44-3.38,1.14-6.15,3.81-8.44,7.73,3.62.67,7.24,1.34,11.86-.21,4.47-2.58,6.16-5.26,7.59-7.96h0Z"/><path id="path28-3-0-84" class="cls-3" d="m181.62,80.34c-2.76-1.09-5.57-2.12-11,.44-3.38,1.14-6.15,3.81-8.44,7.73,3.62.67,7.24,1.34,11.86-.21,4.47-2.58,6.16-5.26,7.59-7.96h0Z"/><path id="path28-3-7-7-0" class="cls-3" d="m162.65,61.34c-2.97-.08-5.96-.1-10.19,4.16-2.78,2.22-4.49,5.68-5.31,10.14,3.63-.61,7.26-1.21,11.08-4.23,3.32-3.94,4-7.05,4.42-10.07h0Z"/><path id="path28-3-7-8-0-0" class="cls-3" d="m113.33,46.75c-2.97-.08-5.96-.1-10.19,4.16-2.78,2.22-4.49,5.68-5.31,10.14,3.63-.61,7.26-1.21,11.08-4.23,3.32-3.94,4-7.05,4.42-10.07h0Z"/><path id="path28-3-1-7-6" class="cls-3" d="m149.27,99.16c-1.8.82-3.6,1.7-4.98,5.71-1.06,2.27-1.14,5.01-.41,8.15,2.01-1.47,4.03-2.93,5.49-6.02.92-3.54.47-5.75-.1-7.83h0Z"/><path id="path28-3-1-0-6-2" class="cls-3" d="m131.61,107.93c-1.19.1-2.39.23-4,2.43-1.07,1.17-1.68,2.87-1.92,5,1.44-.46,2.89-.91,4.35-2.5,1.25-2,1.46-3.49,1.57-4.92Z"/><path id="path28-3-1-0-4-8-4" class="cls-3" d="m105.04,102.75c-.31,1.54-.58,3.09,1.56,5.93,1.07,1.78,2.96,3.18,5.52,4.27-.04-1.98-.08-3.97-1.53-6.4-2.04-2.32-3.81-3.13-5.56-3.79h0Z"/><path id="path28-3-1-0-2-2-7" class="cls-3" d="m138.67,76.66c.06,1.72.17,3.46,2.99,5.92,1.5,1.62,3.72,2.61,6.53,3.09-.52-2.11-1.04-4.22-3.07-6.43-2.59-1.93-4.55-2.33-6.45-2.57h0Z"/><path id="path28-3-1-0-2-1-3-4" class="cls-3" d="m152.05,46.52c-.48,1.28-.94,2.58.42,5.23.63,1.63,1.99,3.02,3.96,4.22.26-1.7.52-3.4-.33-5.63-1.35-2.19-2.7-3.07-4.05-3.82Z"/><path id="path28-3-1-0-2-1-1-9-1" class="cls-3" d="m109.17,69.27c-.7,1.78-1.36,3.6.62,7.29.91,2.28,2.9,4.22,5.76,5.88.38-2.37.75-4.74-.48-7.85-1.97-3.05-3.93-4.28-5.9-5.32Z"/><path id="path28-3-1-0-2-1-1-8-0-8" class="cls-3" d="m51.4,34.26c.21,1.91.47,3.82,3.94,6.16,1.87,1.59,4.53,2.38,7.84,2.52-.77-2.27-1.54-4.54-4.08-6.72-3.16-1.79-5.47-1.95-7.7-1.96h0Z"/><path id="path28-3-1-0-2-1-1-5-3-5" class="cls-3" d="m59.44,57.78c.36,1.88.77,3.77,4.41,5.84,1.98,1.44,4.7,2.02,8.01,1.9-.95-2.2-1.89-4.41-4.59-6.38-3.29-1.53-5.61-1.52-7.83-1.35Z"/><path id="path28-3-1-0-2-1-6-8-8" class="cls-3" d="m144.35,39.01c-1.48-.39-2.98-.74-5.73,1.25-1.72.97-3.09,2.79-4.15,5.29,1.92.06,3.83.13,6.19-1.19,2.25-1.91,3.04-3.64,3.69-5.35Z"/><path id="path28-3-1-0-2-1-6-2-3-9" class="cls-3" d="m51.72,53.84c-.97.06-1.94.16-2.94,2.25-.71,1.11-.96,2.75-.84,4.81,1.13-.4,2.25-.8,3.22-2.31.73-1.91.68-3.35.56-4.75h0Z"/><path id="path28-3-1-0-2-1-6-5-1-9" class="cls-3" d="m97.38,76.78c-1.48-.39-2.98-.74-5.73,1.25-1.72.97-3.09,2.79-4.15,5.29,1.92.06,3.83.13,6.19-1.19,2.25-1.91,3.04-3.64,3.69-5.35Z"/><path id="path28-3-1-0-2-1-6-5-9-00-9" class="cls-3" d="m31.44,95.11c-2.11-.49-4.26-.94-8.18,1.58-2.46,1.24-4.4,3.54-5.92,6.71,2.73.08,5.46.17,8.83-1.51,3.21-2.43,4.34-4.62,5.27-6.79Z"/><path id="path28-3-7-1-0-3" class="cls-3" d="m129.68,17.47c-2.97.1-5.95.28-9.91,4.79-2.64,2.4-4.12,5.95-4.65,10.46,3.59-.84,7.17-1.67,10.79-4.93,3.07-4.15,3.55-7.29,3.78-10.33h0Z"/><path id="path28-3-7-1-48-4-3" class="cls-3" d="m20.15,64.41c.1,2.97.26,5.95,4.77,9.92,2.39,2.64,5.94,4.13,10.45,4.68-.83-3.59-1.65-7.18-4.9-10.8-4.14-3.08-7.28-3.57-10.32-3.8h0Z"/><path id="path28-3-7-1-48-9-7-7" class="cls-3" d="m58.97,100.93c-1.63.51-3.25,1.07-4.82,4.41-1.13,1.85-1.46,4.24-1.13,7.06,1.87-1.05,3.74-2.1,5.29-4.63,1.13-2.98.96-4.96.67-6.85h0Z"/><path id="path28-3-7-1-48-9-2-6-7" class="cls-3" d="m79.31,108.01c-1.44.59-2.88,1.22-3.82,3.94-.76,1.54-.69,3.38.06,5.47,1.59-1.03,3.17-2.06,4.23-4.16.58-2.39.11-3.86-.46-5.25h0Z"/><path id="path28-3-7-1-48-9-8-1-3" class="cls-3" d="m27.38,106.01c.08,2.38.21,4.77,3.78,7.95,1.89,2.12,4.71,3.31,8.28,3.75-.66-2.88-1.31-5.75-3.88-8.66-3.28-2.47-5.77-2.86-8.17-3.05h0Z"/><path id="path28-3-7-1-4-6-2" class="cls-3" d="m99.32,16.26c-2.64,1.92-5.26,3.91-6.92,10.04-1.36,3.58-1.19,7.39.25,11.39,2.89-2.9,5.78-5.8,7.66-10.69,1.01-5.27.1-8.12-.99-10.74h0Z"/><path id="path32-5" class="cls-2" d="m50.24,170.97C24.46,156.97.25,126.68.5,91.37.84,43.96,45.16.5,96.64.5s96.14,40.68,96.14,90.87c0,35.33-23.99,65.63-49.78,79.63"/><g id="text1-4" class="cls-1"><g class="cls-1"><path class="cls-3" d="m49.55,191.06h-5.83v15.28h-4.43v-15.28h-5.86v-3.89h16.12v3.89Z"/><path class="cls-3" d="m68.21,187.18v19.17h-4.43v-7.86h-7.64v7.86h-4.43v-19.17h4.43v7.42h7.64v-7.42h4.43Z"/><path class="cls-3" d="m85.35,202.46v3.89h-13.47v-19.17h13.23v3.89h-8.8v3.73h7.56v3.59h-7.56v4.08h9.04Z"/><path class="cls-3" d="m94.34,206.35v-19.17h7.16c2.11,0,3.87.43,5.29,1.28,1.42.86,2.49,2.01,3.2,3.46.71,1.45,1.07,3.06,1.07,4.82,0,1.94-.4,3.64-1.19,5.08-.79,1.44-1.9,2.56-3.33,3.35-1.43.79-3.11,1.19-5.04,1.19h-7.16Zm12.2-9.61c0-1.12-.2-2.1-.59-2.96-.4-.85-.97-1.52-1.73-2-.76-.48-1.67-.72-2.73-.72h-2.73v11.39h2.73c1.08,0,1.99-.25,2.74-.74.75-.49,1.32-1.18,1.71-2.05s.59-1.85.59-2.93Z"/><path class="cls-3" d="m117.75,187.18h4.75l6.64,19.17h-4.54l-1.3-4.29h-6.33l-1.31,4.29h-4.54l6.61-19.17Zm4.64,11.85l-2.24-7.4-2.25,7.4h4.49Z"/><path class="cls-3" d="m143.83,191.06h-5.83v15.28h-4.43v-15.28h-5.86v-3.89h16.12v3.89Z"/><path class="cls-3" d="m149.04,187.18h4.75l6.64,19.17h-4.54l-1.3-4.29h-6.33l-1.31,4.29h-4.54l6.61-19.17Zm4.64,11.85l-2.24-7.4-2.25,7.4h4.49Z"/></g><g class="cls-1"><path class="cls-3" d="m36.78,240.1v-11.45l-4.16,8.32h-2.4l-4.13-8.32v11.45h-4.43v-19.17h4.81l4.97,10.02,4.97-10.02h4.81v19.17h-4.43Z"/><path class="cls-3" d="m49.71,220.93h4.75l6.64,19.17h-4.54l-1.3-4.29h-6.33l-1.31,4.29h-4.54l6.61-19.17Zm4.64,11.85l-2.24-7.4-2.25,7.4h4.49Z"/><path class="cls-3" d="m67.4,229.11v10.99h-4.43v-19.17h3.51l8.88,11.29v-11.29h4.4v19.17h-3.59l-8.77-10.99Z"/><path class="cls-3" d="m91.56,240.23c-1.24,0-2.42-.24-3.52-.71-1.11-.48-2.08-1.15-2.93-2.01s-1.52-1.9-2.01-3.11c-.5-1.21-.74-2.55-.74-4.02,0-1.31.25-2.55.74-3.71.49-1.16,1.17-2.18,2.04-3.06.86-.88,1.88-1.57,3.04-2.07,1.16-.5,2.42-.74,3.77-.74,1.76,0,3.32.38,4.67,1.13s2.36,1.77,3.02,3.05l-3.32,2.48c-.43-.86-1.06-1.53-1.88-2.01-.82-.48-1.71-.72-2.66-.72-.72,0-1.38.15-1.98.45-.6.3-1.12.71-1.55,1.24-.43.53-.77,1.15-1.01,1.85s-.36,1.46-.36,2.27.13,1.59.38,2.29c.25.7.6,1.31,1.05,1.82.45.51.99.91,1.61,1.2.62.29,1.3.43,2.04.43.92,0,1.8-.23,2.65-.69.85-.46,1.62-1.13,2.32-2.01v4.35c-1.53,1.53-3.31,2.29-5.35,2.29Zm5.05-6.97h-3.67v-3.19h7.37v10.02h-3.7v-6.83Z"/><path class="cls-3" d="m103.23,240.1v-19.17h8.61c.92,0,1.76.19,2.54.57.77.38,1.44.87,1.98,1.48.55.61.98,1.31,1.3,2.08.31.77.47,1.57.47,2.38s-.13,1.52-.39,2.24c-.26.72-.63,1.36-1.09,1.92-.47.56-1.02,1.02-1.65,1.38l4.21,7.13h-4.89l-3.67-6.18h-3v6.18h-4.43Zm4.43-10.07h4.08c.34,0,.65-.11.93-.32.28-.22.51-.52.69-.92.18-.4.27-.85.27-1.35,0-.54-.1-1-.31-1.39-.21-.39-.47-.69-.78-.9-.32-.22-.63-.32-.96-.32h-3.92v5.21Z"/><path class="cls-3" d="m129.52,240.23c-1.4,0-2.69-.27-3.85-.82s-2.16-1.29-3.01-2.21c-.85-.93-1.49-1.97-1.94-3.13s-.67-2.36-.67-3.6.24-2.49.72-3.65c.48-1.15,1.14-2.18,2-3.09.85-.91,1.87-1.62,3.04-2.15,1.17-.52,2.45-.78,3.83-.78s2.71.27,3.87.82,2.16,1.29,3,2.23c.84.94,1.48,1.98,1.93,3.15.45,1.16.67,2.34.67,3.55,0,1.28-.23,2.49-.7,3.64-.47,1.15-1.13,2.18-2,3.09-.86.91-1.88,1.63-3.04,2.16-1.16.53-2.44.8-3.85.8Zm-5-9.72c0,.74.11,1.45.34,2.15.23.69.55,1.31.97,1.85.42.54.94.97,1.57,1.3s1.35.49,2.2.49,1.56-.17,2.19-.5c.63-.33,1.15-.78,1.57-1.35.41-.57.72-1.19.93-1.88.21-.68.31-1.39.31-2.11s-.11-1.45-.34-2.13c-.23-.68-.55-1.3-.97-1.85-.42-.55-.95-.98-1.58-1.28-.63-.31-1.34-.46-2.13-.46-.85,0-1.58.16-2.21.49-.63.32-1.15.77-1.57,1.32s-.73,1.17-.94,1.85c-.22.67-.32,1.38-.32,2.12Z"/><path class="cls-3" d="m143.7,220.93l4.51,13.99,4.46-13.99h4.67l-6.97,19.17h-4.35l-7.02-19.17h4.7Z"/><path class="cls-3" d="m172.59,236.21v3.89h-13.47v-19.17h13.23v3.89h-8.8v3.73h7.56v3.59h-7.56v4.08h9.04Z"/></g></g></g></g></svg>