<svg width="672" height="672" xmlns="http://www.w3.org/2000/svg" xmlns:xlink="http://www.w3.org/1999/xlink" overflow="hidden"><g><rect x="0" y="0" width="672" height="672"/><path d="M322 351 351.359 547.183" stroke="#FFFFFF" stroke-width="8" stroke-miterlimit="8" fill="none" fill-rule="evenodd"/><path d="M308 504C308 480.252 327.476 461 351.5 461 375.524 461 395 480.252 395 504 395 527.748 375.524 547 351.5 547 327.476 547 308 527.748 308 504Z" fill="#FCD462" fill-rule="evenodd"/><path d="M254 285 615.341 587.941" stroke="#FFFFFF" stroke-width="8" stroke-miterlimit="8" fill="none" fill-rule="evenodd"/><path d="M0 0 299.495 220.341" stroke="#FFFFFF" stroke-width="8" stroke-miterlimit="8" fill="none" fill-rule="evenodd" transform="matrix(-1 0 0 1 366.495 327)"/><path d="M0 0 0.000104987 421.839" stroke="#FFFFFF" stroke-width="8" stroke-miterlimit="8" fill="none" fill-rule="evenodd" transform="matrix(1 0 0 -1 322 448.839)"/><path d="M226 353C226 299.981 268.981 257 322 257 375.019 257 418 299.981 418 353 418 406.019 375.019 449 322 449 268.981 449 226 406.019 226 353Z" fill="#4472C4" fill-rule="evenodd"/><path d="M264 85C264 52.9675 289.967 27 322 27 354.033 27 380 52.9675 380 85 380 117.033 354.033 143 322 143 289.967 143 264 117.033 264 85Z" fill="#FE7058" fill-rule="evenodd"/><path d="M50 506.5C50 474.744 75.7436 449 107.5 449 139.256 449 165 474.744 165 506.5 165 538.256 139.256 564 107.5 564 75.7436 564 50 538.256 50 506.5Z" fill="#9297AB" fill-rule="evenodd"/><path d="M517 547.5C517 515.744 542.744 490 574.5 490 606.256 490 632 515.744 632 547.5 632 579.256 606.256 605 574.5 605 542.744 605 517 579.256 517 547.5Z" fill="#27CCBC" fill-rule="evenodd"/></g></svg>